<svg xmlns="http://www.w3.org/2000/svg" viewBox="0 0 47 48"><title>Camp</title><path d="M42,32.19H33.75a.49.49,0,0,0,0,1H42a.49.49,0,0,0,0-1Z" style="fill:#fff"/><path d="M42,38.34H32.75a.49.49,0,1,0,0,1H42a.49.49,0,0,0,0-1Z" style="fill:#fff"/><path d="M4.48,35.69H12a.49.49,0,1,0,0-1H4.48a.49.49,0,0,0-.48.49A.48.48,0,0,0,4.48,35.69Z" style="fill:#fff"/><path d="M7.74.53a.49.49,0,0,1,.56.1h0a.5.5,0,0,1,.09.56A4.22,4.22,0,0,0,7.94,3.1,4.3,4.3,0,0,0,14.15,7a.47.47,0,0,1,.55.09.49.49,0,0,1,.09.56,5.22,5.22,0,0,1-4.71,2.94A5.29,5.29,0,0,1,7.74.53Zm5.39,7.78a5.34,5.34,0,0,1-.89.07h0A5.28,5.28,0,0,1,7,3.1a5.46,5.46,0,0,1,.07-.9,4.32,4.32,0,0,0,3,7.38A4.28,4.28,0,0,0,13.13,8.31Z" style="fill:#fff;fill-rule:evenodd"/><path d="M42,24.41h0a.48.48,0,0,0-.48.48l0,2.59L23.68.92a.51.51,0,0,0-.8,0L5,27.47V24.72a.49.49,0,0,0-.48-.49h0a.49.49,0,0,0-.49.48v4.34a.47.47,0,0,0,.34.47l.14,0a.52.52,0,0,0,.4-.21l2.81-4.18v3.91a.48.48,0,0,0,.48.48H19a4.38,4.38,0,0,0,4.17,3.1h.11a4.37,4.37,0,0,0,4.06-3.09h11a.48.48,0,0,0,.48-.48V25.15l2.81,4.18a.49.49,0,0,0,.54.19.48.48,0,0,0,.34-.46l0-4.16a.48.48,0,0,0-.48-.49ZM23.23,31.66h-.07a1.53,1.53,0,0,1-1.51-1.53,7.47,7.47,0,0,1,1.53-2.78,7.62,7.62,0,0,1,1.53,2.78,1.53,1.53,0,0,1-1.48,1.53Zm2.44-1.53a3,3,0,0,1,0,.42h0a3.35,3.35,0,0,0,.88-2.29c0-1.46-2.19-4.55-3.39-6.09-1.21,1.54-3.4,4.63-3.4,6.09a3.43,3.43,0,0,0,1,2.44,2.69,2.69,0,0,1-.07-.57c0-1.23,1.77-3.44,2.12-3.87a.51.51,0,0,1,.75,0C23.9,26.69,25.67,28.9,25.67,30.13Zm-2.18-9a.5.5,0,0,0-.74,0c-.41.49-4,4.91-4,7.17,0,.07,0,.15,0,.22h0v.09H13.93v-3.2a33.75,33.75,0,0,0,4.82-4.92,23.68,23.68,0,0,0,4.55-8.6,23.53,23.53,0,0,0,4.55,8.6,33.75,33.75,0,0,0,4.82,4.92v3.2H27.46c0-.1,0-.21,0-.31,0-2.26-3.58-6.68-4-7.17Zm10.14,7.48h4.22V23.72L23.28,2.06,8.71,23.72v4.85H13V25.14a.48.48,0,0,1,.19-.39h0c.12-.09,9.66-7.63,9.66-16.56a.49.49,0,1,1,1,0c0,8.92,9.54,16.46,9.66,16.56h0a.49.49,0,0,1,.19.39Z" style="fill:#fff;fill-rule:evenodd"/><path d="M30.6,34.43a.5.5,0,0,1,0,.38h0a.45.45,0,0,1-.28.24l-1.78.6,1.71.49a.42.42,0,0,1,.29.23.44.44,0,0,1,0,.37l-.61,2.09a.48.48,0,0,1-.46.35l-.13,0-6.13-1.75-5.63,1.88-.15,0A.47.47,0,0,1,17,39l-.71-2.06a.48.48,0,0,1,0-.37.46.46,0,0,1,.28-.25l1.48-.49-1.78-.51a.45.45,0,0,1-.29-.23.44.44,0,0,1,0-.37l.61-2.09a.48.48,0,0,1,.59-.33L23.36,34l5.92-2a.49.49,0,0,1,.61.3ZM17.36,33.34,17,34.5l2.68.77,2-.68Zm12.13,3.6-.34,1.15-4.3-1.22,2-.68Zm-12.14.13.39,1.15,11.79-3.93-.4-1.15Z" style="fill:#fff;fill-rule:evenodd"/></svg>