<svg xmlns="http://www.w3.org/2000/svg" viewBox="0 0 21 24"><title>Down Arrows</title><path d="M10.31,23.89a2,2,0,0,0,1.07-.46l8.14-7a2,2,0,0,0,.72-1.33,1.9,1.9,0,0,0-.46-1.44A2,2,0,0,0,18.43,13a2,2,0,0,0-1.43.51l-6.87,5.9-6.88-5.9A2,2,0,0,0,1.82,13a2,2,0,0,0-1.35.68A1.9,1.9,0,0,0,0,15.12a2,2,0,0,0,.72,1.33l8.14,7A2,2,0,0,0,10.31,23.89Z" style="fill:#fff"/><path d="M10.31,10.89a2,2,0,0,0,1.07-.46l8.14-7a2,2,0,0,0,.72-1.33A1.9,1.9,0,0,0,19.78.68,2,2,0,0,0,18.43,0,2,2,0,0,0,17,.51l-6.87,5.9L3.25.51A2,2,0,0,0,1.82,0,2,2,0,0,0,.47.68,1.9,1.9,0,0,0,0,2.12,2,2,0,0,0,.73,3.45l8.14,7A2,2,0,0,0,10.31,10.89Z" style="fill:#fff"/></svg>