<svg xmlns="http://www.w3.org/2000/svg" viewBox="0 0 52 33"><title>Travel</title><path d="M49.75,22.28V25h0a1.25,1.25,0,0,1,1,1.21v1a1.25,1.25,0,0,1-1,1.22v0H43.19a4.75,4.75,0,0,1-9.37,0H16.43a4.75,4.75,0,0,1-9.37,0H2.5a1.24,1.24,0,0,1-1.25-1.24v-1A1.24,1.24,0,0,1,2.5,25h.75V13.87A6.23,6.23,0,0,1,9.5,7.68h5.77v-2C9.19,5.13,4,4.06,2.47,2.51a.74.74,0,0,1-.14-.87.77.77,0,0,1,.8-.38c5,.88,12.72,1,19.63,1H37.19c4.36,0,7,0,10.52-.2a.77.77,0,0,1,.76.54.74.74,0,0,1-.36.85,10.42,10.42,0,0,1-1.86.78v1.5a1.77,1.77,0,0,1-1.76,1.74,1.78,1.78,0,0,1-1-.35L41,5.33a97.6,97.6,0,0,1-11.28.82V7.68H35a14.76,14.76,0,0,1,8.9,3l.21.16a14.68,14.68,0,0,1,4.66,6.24h0l0,0s0,.08,0,.11h0l0,.09.3.77h-.05A14.25,14.25,0,0,1,49.75,22.28ZM36,16.59H46.93a13.24,13.24,0,0,0-3.55-4.46H36a.26.26,0,0,0-.25.25v4A.26.26,0,0,0,36,16.59ZM44.75,5.71a.22.22,0,0,1-.14.22.23.23,0,0,1-.26,0L43.09,5c.59-.11,1.14-.23,1.66-.36Zm-18.66-2H22.76c-4.44,0-9.22-.05-13.42-.32A94.32,94.32,0,0,0,26,4.71a104.72,104.72,0,0,0,15.74-1l-4.55,0H26.09Zm-9.32,2.1c3,.23,6.19.36,9.23.36l2.25,0v1.5H16.77ZM8.5,27.72a3.25,3.25,0,1,0,3.25-3.22A3.24,3.24,0,0,0,8.5,27.72Zm30,3.22a3.22,3.22,0,1,1,3.25-3.22A3.24,3.24,0,0,1,38.5,30.94Zm0-7.92a4.75,4.75,0,0,1,4.69,4h6.06v-.5h-4.5V25h3.5V22.28a13,13,0,0,0-.7-4.21H36a1.74,1.74,0,0,1-1.75-1.73v-4A1.74,1.74,0,0,1,36,10.65h5.11A13.23,13.23,0,0,0,35,9.16H9.5a4.73,4.73,0,0,0-4.75,4.71v2.72h7.53v1.48H4.75V25h1v1.48h-3V27H7.06a4.76,4.76,0,0,1,9.38,0H33.81A4.75,4.75,0,0,1,38.5,23Z" style="fill:#fff;fill-rule:evenodd"/><path d="M49.75,25l.08.29.22-.06V25Zm0,0-.08-.29,0,.59Zm0,3.42-.06-.3-.24.05v.25Zm0,0v.3h.3v-.3Zm-6.56,0v-.3h-.26l0,.25Zm-9.37,0,.29-.05,0-.25h-.25Zm-17.39,0v-.3h-.25l0,.25Zm-9.37,0,.3-.05,0-.25H7.06Zm-3.81,0v-.3h0Zm-.75,0v.3h0ZM3.25,25v.3h.3V25ZM9.5,7.68V8h0Zm5.77,0V8h.3v-.3Zm0-2h.3V5.43l-.27,0ZM2.47,2.51l.21-.21h0Zm-.14-.87L2.07,1.5h0Zm.8-.38,0,.29h0Zm23.92,1V2h0Zm1.05,0v.3h0Zm0,0v-.3h0Zm0,0v-.3h0Zm0,0v.3h0Zm0,0v-.3h0Zm2.65,0v-.3h0Zm6.44,0v.3h0ZM47.71,2v-.3h0Zm.76.54.29-.08h0Zm-.36.85.15.26h0Zm-1.86.78-.09-.29L46,4v.22Zm-1,3.05.14.27h0ZM43.45,7.1l.18-.24h0ZM41,5.33l.18-.24L41.11,5,41,5Zm-11.28.82V5.86h-.29v.29Zm0,1.53h-.3V8h.3Zm5.25,0v-.3h0Zm8.9,3,.19-.24h0Zm.21.16.18-.24h0Zm4.66,6.24-.28.11h0Zm0,0,.28-.12h0Zm0,0,.28-.1h0Zm0,.11-.28.12h0Zm0,0,.28-.1h0Zm0,0-.28.11h0Zm0,0,.28-.11h0Zm0,0-.28.1h0Zm0,0,.28-.12h0Zm0,.09-.28.1h0Zm.3.77v.3h.43L49.45,18Zm-.05,0v-.3h-.4l.12.39Zm-2.19-1.48v.3h.48l-.21-.44Zm-3.55-4.46.19-.23-.08-.07h-.11Zm1.23-6.2-.13-.27h0Zm.14-.22h0Zm-.4.2.18-.24h0ZM43.09,5,43,4.69l-.68.13.55.41Zm1.66-.36h.3V4.25l-.37.09ZM26.09,3.74V4h0Zm0,0v-.3h0Zm-3.33,0,0-.3,0,.6Zm0,0,0,.3,0-.6ZM9.34,3.42l0-.3-.08.6Zm32.4.29,0,.29,0-.59Zm-4.55,0V4h0Zm-6.44,0v-.3h0Zm-3.69,0V4h0ZM16.77,5.84l0-.3-.33,0v.33Zm11.48.34h.3v-.3h-.3Zm0,1.5V8h.3v-.3Zm-11.48,0h-.3V8h.3ZM43.19,27l-.3,0,0,.26h.26Zm6.06,0v.3h.3V27Zm0-.5h.3v-.3h-.3Zm-4.5,0h-.3v.3h.3Zm0-1.48v-.3h-.3V25Zm3.5,0v.3h.3V25Zm-.7-6.93.28-.1-.07-.2h-.21Zm-6.44-7.42V11l.14-.57ZM4.75,16.59h-.3v.3h.3Zm7.53,0h.3v-.3h-.3Zm0,1.48v.3h.3v-.3Zm-7.53,0v-.3h-.3v.3Zm0,6.93h-.3v.3h.3Zm1,0h.3v-.3h-.3Zm0,1.48v.3h.3v-.3Zm-3,0v-.3h-.3v.3Zm0,.5h-.3v.3h.3Zm4.31,0v.3h.26l0-.26Zm9.38,0-.3,0,0,.26h.26Zm17.37,0v.3h.26l0-.26Zm16.24-2V22.28h-.6V25Zm-.22.29h0l-.16-.58h0Zm1.22.92a1.54,1.54,0,0,0-1.24-1.5l-.12.59a.94.94,0,0,1,.76.91Zm0,1v-1h-.6v1Zm-1.24,1.51a1.55,1.55,0,0,0,1.24-1.51h-.6a.94.94,0,0,1-.76.92Zm.24-.27v0h-.6v0Zm-6.86.3h6.56v-.6H43.19Zm-4.69,4a5,5,0,0,0,5-4.21l-.59-.1a4.44,4.44,0,0,1-4.39,3.71Zm-5-4.21a5,5,0,0,0,5,4.21v-.6a4.44,4.44,0,0,1-4.39-3.71Zm-17.09.25H33.82v-.6H16.43Zm-4.68,4a5,5,0,0,0,5-4.21l-.59-.1a4.44,4.44,0,0,1-4.39,3.71Zm-5-4.21a5,5,0,0,0,5,4.21v-.6a4.44,4.44,0,0,1-4.39-3.71Zm-3.52.25H7.06v-.6H3.25Zm-.75,0h.75v-.6H2.5ZM1,27.22A1.55,1.55,0,0,0,2.5,28.76v-.6a.94.94,0,0,1-.95-.94Zm0-1v1h.6v-1ZM2.5,24.7A1.54,1.54,0,0,0,1,26.24h.6a.94.94,0,0,1,1-.94Zm.75,0H2.5v.6h.75ZM3,13.87V25h.6V13.87ZM9.5,7.38A6.53,6.53,0,0,0,3,13.87h.6A5.93,5.93,0,0,1,9.5,8Zm5.77,0H9.5V8h5.77ZM15,5.7v2h.6v-2Zm-12.71-3a5.82,5.82,0,0,0,1.9,1.14,20.79,20.79,0,0,0,2.94.9A61.77,61.77,0,0,0,15.24,6l.06-.6A59.9,59.9,0,0,1,7.24,4.18,19.93,19.93,0,0,1,4.39,3.3a5.4,5.4,0,0,1-1.71-1ZM2.07,1.5a1,1,0,0,0,.19,1.23l.42-.43a.44.44,0,0,1-.08-.52ZM3.18,1a1,1,0,0,0-1.11.54l.53.28a.46.46,0,0,1,.48-.23ZM22.76,2C15.84,2,8.13,1.84,3.18,1l-.1.59c5,.89,12.77,1,19.68,1Zm4.29,0H22.76v.6h4.3Zm1.05,0H27.05v.6h1Zm0,0h0v.6h0Zm0,0h0v.6h0Zm0,0h0v.6h0Zm0,0h0v.6h0Zm0,0h0v.6h0Zm0,0h0v.6h0Zm2.65,0H28.1v.6h2.65Zm6.44,0H30.75v.6h6.44Zm0,0h0v.6h0Zm10.51-.2c-3.48.17-6.16.2-10.51.2v.6c4.36,0,7.05,0,10.54-.2Zm1.06.76a1.07,1.07,0,0,0-1.06-.76l0,.6a.47.47,0,0,1,.46.32Zm-.5,1.19a1,1,0,0,0,.5-1.19l-.58.16a.44.44,0,0,1-.21.51Zm-1.92.8a10.69,10.69,0,0,0,1.92-.8L48,3.17a9.89,9.89,0,0,1-1.81.75Zm.21,1.22V4.21H46v1.5ZM45.42,7.53a2,2,0,0,0,1.13-1.82H46A1.41,1.41,0,0,1,45.15,7Zm-.93.22a2.19,2.19,0,0,0,.93-.22L45.15,7a1.43,1.43,0,0,1-.66.16Zm-1.21-.4a2.06,2.06,0,0,0,1.21.4v-.6a1.46,1.46,0,0,1-.86-.29ZM40.86,5.57l2.42,1.78.35-.49L41.21,5.09Zm-11.1.88a96.26,96.26,0,0,0,11.32-.83L41,5a98.86,98.86,0,0,1-11.25.83Zm.29,1.23V6.15h-.6V7.68ZM35,7.38H29.75V8H35Zm9.08,3a15,15,0,0,0-9.08-3V8a14.42,14.42,0,0,1,8.72,2.91Zm.21.16-.2-.16-.37.48.2.15Zm4.76,6.37a15,15,0,0,0-4.76-6.37l-.37.47a14.39,14.39,0,0,1,4.57,6.12Zm0,0h0l-.54.27h0Zm0,.06v0l-.55.23v0Zm0,.11a.42.42,0,0,1,0-.1l-.57.2a1.12,1.12,0,0,1,0,.13Zm0,0h0l-.56.23h0Zm0,0h0l-.56.21h0Zm0,0h0l-.56.23h0Zm0,0h0l-.56.21h0Zm0,0h0l-.56.23h0Zm0,.11s0-.07,0-.11l-.56.23,0,.08Zm.3.76-.3-.77-.56.22.3.77Zm-.33.41h.05v-.6h-.05Zm.93,3.91a14.86,14.86,0,0,0-.64-4.3l-.57.18a14.36,14.36,0,0,1,.61,4.12Zm-3.12-6H36v.6H46.93Zm0,0h0v.6h0Zm-3.74-3.92a12.84,12.84,0,0,1,3.47,4.35l.54-.27a13.57,13.57,0,0,0-3.63-4.55ZM36,12.43h7.38v-.6H36Zm0,0s0,0,0,0h0v-.6a.55.55,0,0,0-.55.55Zm0,4v-4h-.6v4Zm0-.05h0a.1.1,0,0,1,0,0h-.6a.55.55,0,0,0,.55.55ZM44.74,6.2A.55.55,0,0,0,45,6a.51.51,0,0,0,.08-.29h-.6s0,0,0,0h0Zm-.57,0a.52.52,0,0,0,.57,0l-.26-.54h.05Zm-1.26-.92,1.26.92.36-.48-1.26-.92Zm1.77-.89c-.51.12-1.06.24-1.64.35l.11.59c.59-.11,1.15-.23,1.67-.36Zm.37,1.37V4.63h-.6V5.71ZM26.09,4h0v-.6h0ZM22.76,4h3.33v-.6H22.76Zm0-.6h0l.06.6h0ZM9.32,3.72c4.21.27,9,.32,13.44.32v-.6c-4.44,0-9.21,0-13.4-.32ZM26,4.41A94.8,94.8,0,0,1,9.39,3.13l-.11.59A95.25,95.25,0,0,0,26,5Zm15.69-1A103.89,103.89,0,0,1,26,4.41V5A104,104,0,0,0,41.79,4ZM37.19,4l4.56,0v-.6l-4.55,0Zm0,0h0v-.6h0ZM30.75,4h6.44v-.6H30.75ZM27.06,4h3.69v-.6H27.06Zm-1,0h1v-.6h-1ZM26,5.9c-3,0-6.2-.13-9.2-.36l-.05.6c3,.23,6.2.36,9.25.36Zm2.25,0L26,5.9v.6l2.25,0Zm.3,1.8V6.18H28v1.5ZM16.77,8H28.25v-.6H16.77Zm-.3-2.14V7.68h.6V5.84Zm-4.72,24.8A2.94,2.94,0,0,1,8.8,27.72H8.2a3.54,3.54,0,0,0,3.55,3.52Zm2.95-2.92a2.94,2.94,0,0,1-2.95,2.92v.6a3.54,3.54,0,0,0,3.55-3.52ZM11.75,24.8a2.94,2.94,0,0,1,2.95,2.92h.6a3.54,3.54,0,0,0-3.55-3.52ZM8.8,27.72a2.94,2.94,0,0,1,2.95-2.92v-.6A3.54,3.54,0,0,0,8.2,27.72Zm26.15,0a3.54,3.54,0,0,0,3.55,3.52v-.6a2.94,2.94,0,0,1-3-2.92ZM38.5,24.2A3.54,3.54,0,0,0,35,27.72h.6a2.94,2.94,0,0,1,3-2.92Zm3.55,3.52A3.54,3.54,0,0,0,38.5,24.2v.6a2.94,2.94,0,0,1,3,2.92ZM38.5,31.24a3.54,3.54,0,0,0,3.55-3.52h-.6a2.94,2.94,0,0,1-3,2.92Zm5-4.31a5,5,0,0,0-5-4.21v.6A4.44,4.44,0,0,1,42.89,27Zm5.77-.25H43.19v.6h6.06Zm-.3-.2V27h.6v-.5Zm-4.2.3h4.5v-.6h-4.5ZM44.45,25v1.48h.6V25Zm3.8-.3h-3.5v.6h3.5ZM48,22.28V25h.6V22.28Zm-.69-4.11A12.44,12.44,0,0,1,48,22.28h.6A13.39,13.39,0,0,0,47.83,18ZM36,18.37H47.55v-.6H36Zm-2-2a2,2,0,0,0,2,2v-.6a1.44,1.44,0,0,1-1.45-1.43Zm0-4v4h.6v-4Zm2-2a2,2,0,0,0-2,2h.6A1.44,1.44,0,0,1,36,11Zm5.11,0H36V11h5.11ZM35,9.46a12.91,12.91,0,0,1,6,1.46l.28-.54A13.67,13.67,0,0,0,35,8.86Zm-25.5,0H35v-.6H9.5ZM5.05,13.87A4.43,4.43,0,0,1,9.5,9.46v-.6a5,5,0,0,0-5,5Zm0,2.72V13.87h-.6v2.72Zm7.23-.3H4.75v.6h7.53Zm.3,1.78V16.59H12v1.48Zm-7.83.3h7.53v-.6H4.75ZM5.05,25V18.07h-.6V25Zm.7-.3h-1v.6h1Zm.3,1.78V25h-.6v1.48Zm-3.3.3h3v-.6h-3Zm.3.2v-.5h-.6V27Zm4-.3H2.75v.6H7.06Zm4.69-4a5,5,0,0,0-5,4.21l.59.09a4.44,4.44,0,0,1,4.39-3.7Zm5,4.21a5,5,0,0,0-5-4.21v.6A4.44,4.44,0,0,1,16.14,27Zm17.08-.25H16.44v.6H33.81Zm4.69-4a5,5,0,0,0-5,4.21l.59.09a4.44,4.44,0,0,1,4.39-3.7Z" style="fill:#222532"/><path d="M23.75,12.38v4A1.75,1.75,0,0,1,22,18.07H17a1.75,1.75,0,0,1-1.75-1.73v-4A1.75,1.75,0,0,1,17,10.65h5A1.75,1.75,0,0,1,23.75,12.38Zm-7,0v4a.26.26,0,0,0,.25.25h5a.26.26,0,0,0,.25-.25v-4a.26.26,0,0,0-.25-.25H17A.26.26,0,0,0,16.75,12.38Z" style="fill:#fff;fill-rule:evenodd"/><path d="M24.05,16.34v-4h-.6v4Zm-2.05,2a2,2,0,0,0,2.05-2h-.6A1.45,1.45,0,0,1,22,17.77Zm-5,0h5v-.6H17Zm-2.05-2a2,2,0,0,0,2.05,2v-.6a1.45,1.45,0,0,1-1.45-1.43Zm0-4v4h.6v-4Zm2.05-2a2,2,0,0,0-2.05,2h.6A1.44,1.44,0,0,1,17,11Zm5,0H17V11h5Zm2.05,2a2,2,0,0,0-2.05-2V11a1.44,1.44,0,0,1,1.45,1.43Zm-7,4v-4h-.6v4ZM17,16.29s0,0,0,0a.05.05,0,0,1,0,0h-.6a.55.55,0,0,0,.55.55Zm5,0H17v.6h5Zm-.05.05a.1.1,0,0,1,0,0h0v.6a.55.55,0,0,0,.55-.55Zm0-4v4h.6v-4Zm.05,0h0s0,0,0,0h.6a.55.55,0,0,0-.55-.55Zm-5,0h5v-.6H17Zm.05,0s0,0,0,0h0v-.6a.55.55,0,0,0-.55.55Z" style="fill:#222532"/><path d="M26.5,10.65h5a1.75,1.75,0,0,1,1.75,1.73v4a1.75,1.75,0,0,1-1.75,1.73h-5a1.75,1.75,0,0,1-1.75-1.73v-4A1.75,1.75,0,0,1,26.5,10.65Zm5,5.94a.26.26,0,0,0,.25-.25v-4a.26.26,0,0,0-.25-.25h-5a.26.26,0,0,0-.25.25v4a.26.26,0,0,0,.25.25Z" style="fill:#fff;fill-rule:evenodd"/><path d="M31.5,10.35h-5V11h5Zm2,2a2,2,0,0,0-2-2V11A1.44,1.44,0,0,1,33,12.38Zm0,4v-4H33v4Zm-2,2a2,2,0,0,0,2-2H33a1.45,1.45,0,0,1-1.45,1.43Zm-5,0h5v-.6h-5Zm-2.05-2a2,2,0,0,0,2.05,2v-.6a1.45,1.45,0,0,1-1.45-1.43Zm0-4v4h.6v-4Zm2.05-2a2,2,0,0,0-2.05,2h.6A1.44,1.44,0,0,1,26.5,11Zm4.95,6a.1.1,0,0,1,0,0h0v.6a.55.55,0,0,0,.55-.55Zm0-4v4h.6v-4Zm.05,0h0s0,0,0,0h.6a.55.55,0,0,0-.55-.55Zm-5,0h5v-.6h-5Zm.05,0s0,0,0,0h0v-.6a.55.55,0,0,0-.55.55Zm0,4v-4H26v4Zm-.05-.05h0a.1.1,0,0,1,0,0H26a.55.55,0,0,0,.55.55Zm5,0h-5v.6h5Z" style="fill:#222532"/><path d="M36.5,27.72a2,2,0,1,1,2,2A2,2,0,0,1,36.5,27.72Zm1.5,0a.5.5,0,0,0,1,0,.5.5,0,0,0-1,0Z" style="fill:#fff;fill-rule:evenodd"/><path d="M38.5,25.44a2.29,2.29,0,0,0-2.3,2.28h.6A1.69,1.69,0,0,1,38.5,26Zm2.3,2.28a2.29,2.29,0,0,0-2.3-2.28V26a1.69,1.69,0,0,1,1.7,1.68ZM38.5,30a2.29,2.29,0,0,0,2.3-2.28h-.6a1.69,1.69,0,0,1-1.7,1.68Zm-2.3-2.28A2.29,2.29,0,0,0,38.5,30v-.6a1.69,1.69,0,0,1-1.7-1.68Zm2.3.19a.2.2,0,0,1-.2-.19h-.6a.79.79,0,0,0,.8.79Zm.2-.19a.2.2,0,0,1-.2.19v.6a.79.79,0,0,0,.8-.79Zm-.2-.2a.2.2,0,0,1,.2.2h.6a.8.8,0,0,0-.8-.8Zm-.2.2a.2.2,0,0,1,.2-.2v-.6a.8.8,0,0,0-.8.8Z" style="fill:#222532"/><path d="M9.75,27.72a2,2,0,1,1,2,2A2,2,0,0,1,9.75,27.72Zm1.5,0a.5.5,0,0,0,1,0,.5.5,0,0,0-1,0Z" style="fill:#fff;fill-rule:evenodd"/><path d="M11.75,25.44a2.29,2.29,0,0,0-2.3,2.28h.6A1.69,1.69,0,0,1,11.75,26Zm2.3,2.28a2.29,2.29,0,0,0-2.3-2.28V26a1.69,1.69,0,0,1,1.7,1.68ZM11.75,30a2.29,2.29,0,0,0,2.3-2.28h-.6a1.69,1.69,0,0,1-1.7,1.68Zm-2.3-2.28A2.29,2.29,0,0,0,11.75,30v-.6a1.69,1.69,0,0,1-1.7-1.68Zm2.3.19a.2.2,0,0,1-.2-.19H11a.79.79,0,0,0,.8.79Zm.2-.19a.2.2,0,0,1-.2.19v.6a.79.79,0,0,0,.8-.79Zm-.2-.2a.2.2,0,0,1,.2.2h.6a.8.8,0,0,0-.8-.8Zm-.2.2a.2.2,0,0,1,.2-.2v-.6a.8.8,0,0,0-.8.8Z" style="fill:#222532"/><path d="M17.25,25h15.5v1.48H17.25Z" style="fill:#fff;stroke:#222532;stroke-width:0.6000000238418579px"/></svg>