<svg xmlns="http://www.w3.org/2000/svg" viewBox="0 0 25 52"><title>shop</title><path d="M5,20.58C5,7.5,10.42.45,12.64.44s7.64,7.06,7.64,20.14a51.16,51.16,0,0,1-5,22.56l-.19.36h-5l-.2-.36A51.24,51.24,0,0,1,5,20.58ZM11.94,2.29Zm0,0V24.06h1.39V2.29c1.78,1.58,5.56,7.36,5.56,18.29A53.3,53.3,0,0,1,18,30.47a15.09,15.09,0,0,0-5-4.24c-6.54-3.74-6.46-8.88-6.46-9.09h0C7.2,8.42,10.36,3.7,11.94,2.29ZM6.52,24.22c0-.82-.09-1.66-.11-2.52a14.83,14.83,0,0,0,5.89,5.74c4.44,2.54,5.2,5.05,5.22,5.12h0c-.34,1.48-.71,2.83-1.09,4A9.26,9.26,0,0,0,13,33.18,12.74,12.74,0,0,1,6.52,24.22Zm6.81,17.89h1a35.73,35.73,0,0,0,1.47-3.54,7,7,0,0,0-3.48-4.2,15.47,15.47,0,0,1-5.12-4.82A49.25,49.25,0,0,0,11,42.11h1V37.25h1.39Z" style="fill:#fff;fill-rule:evenodd"/><path d="M12.64.44V.32h0Zm2.69,42.7.11,0h0Zm-.19.36v.12h.07l0-.06Zm-5,0-.11.06,0,.06h.07Zm-.2-.36-.11,0h0Zm2-40.85,0-.12-.08,0v.09Zm0,0,.09.09-.13-.21Zm0,21.77h-.12v.12h.12Zm1.39,0v.12h.13v-.12Zm0-21.77.09-.1L13.21,2v.28ZM18,30.47l-.1.07.17.24,0-.29Zm-5-4.24-.06.11h0ZM6.52,17.14h.13V17H6.52Zm0,0H6.4v.13h.13ZM6.41,21.7l.11-.06-.23.06Zm.11,2.52H6.4Zm5.78,3.22-.07.11h0Zm5.22,5.12-.12,0h0Zm0,0,.12,0v-.06Zm-1.09,4-.1.06.14.25.08-.27ZM13,33.18l.06-.1h0Zm1.29,8.93v.13h.22l-.11-.19Zm-1,0h-.12v.13h.12Zm1,0-.11,0,0,.06,0,.05Zm1.47-3.54.12,0v-.07Zm-3.48-4.2-.06.11h0ZM7.16,29.55l.1-.07L7,29.57ZM11,42.11l-.11.06,0,.07H11Zm1,0v.13h.13v-.13Zm0-4.86v-.12h-.12v.12Zm1.39,0h.13v-.12h-.13ZM12.64.32a2,2,0,0,0-1,.35,5.63,5.63,0,0,0-1.19,1A15.38,15.38,0,0,0,7.88,5.55a34.9,34.9,0,0,0-3,15h.25a34.81,34.81,0,0,1,3-14.92,15,15,0,0,1,2.5-3.82,5.69,5.69,0,0,1,1.14-1,1.82,1.82,0,0,1,.9-.31ZM20.4,20.58a35,35,0,0,0-3-15,15.38,15.38,0,0,0-2.54-3.88,5.89,5.89,0,0,0-1.19-1,2,2,0,0,0-1-.35V.57a1.85,1.85,0,0,1,.9.31,5.69,5.69,0,0,1,1.14,1,15,15,0,0,1,2.5,3.82,34.81,34.81,0,0,1,3,14.92Zm-5,22.61a51.12,51.12,0,0,0,5-22.61h-.25a51,51,0,0,1-4.93,22.5Zm-.19.37.19-.37-.22-.11-.19.36Zm-5.11.06h5v-.25h-5Zm-.31-.43.2.37.22-.12-.2-.36ZM4.88,20.58a51.36,51.36,0,0,0,5,22.61l.22-.11a51.24,51.24,0,0,1-4.92-22.5ZM11.82,2.29Zm.08-.12h0l.08.24h0Zm.13.21h0l-.17-.19h0Zm0,21.68V2.29h-.25V24.06Zm1.26-.13H11.94v.25h1.39ZM13.21,2.29V24.06h.25V2.29ZM19,20.58c0-11-3.78-16.77-5.59-18.39l-.17.19c1.74,1.56,5.51,7.29,5.51,18.2Zm-.93,9.91A53.44,53.44,0,0,0,19,20.58h-.25a54,54,0,0,1-.92,9.87Zm-5.16-4.15a15,15,0,0,1,4.94,4.2l.2-.14a15.16,15.16,0,0,0-5-4.28ZM6.4,17.13c0,.25-.08,5.44,6.52,9.21l.13-.22c-6.5-3.71-6.41-8.79-6.4-9Zm.12.13h0V17h0ZM11.86,2.2C10.25,3.63,7.08,8.39,6.4,17.13l.25,0C7.33,8.45,10.48,3.77,12,2.38ZM6.29,21.7c0,.86,0,1.71.11,2.53h.25c-.06-.82-.09-1.67-.11-2.52Zm6.07,5.63a14.64,14.64,0,0,1-5.84-5.69l-.22.12a14.92,14.92,0,0,0,5.93,5.79Zm5.28,5.19c0-.09-.81-2.63-5.28-5.19l-.13.22c4.42,2.52,5.16,5,5.17,5Zm0,0h0l-.24.07h0Zm-1.09,4.1c.38-1.19.75-2.55,1.09-4l-.24,0c-.34,1.48-.71,2.83-1.08,4Zm-3.62-3.33a9.23,9.23,0,0,1,3.4,3.35l.21-.12a9.29,9.29,0,0,0-3.48-3.44Zm-6.53-9c.12,1,1,5.76,6.53,9.05l.13-.21c-5.44-3.24-6.29-7.94-6.41-8.87ZM14.29,42h-1v.25h1Zm-.1.18h0l.21-.12h0Zm1.46-3.64a37.88,37.88,0,0,1-1.47,3.53l.23.11c.27-.58.83-1.8,1.47-3.56Zm-3.43-4.05a6.87,6.87,0,0,1,3.42,4.12l.25-.06a7.16,7.16,0,0,0-3.54-4.27ZM7.06,29.62a15.52,15.52,0,0,0,5.16,4.86l.13-.21a15.49,15.49,0,0,1-5.09-4.79Zm4,12.44A49,49,0,0,1,7.28,29.53l-.24,0a49,49,0,0,0,3.83,12.6Zm.84-.07H11v.25h1Zm-.12-4.74v4.86h.25V37.25Zm1.51-.12H11.94v.25h1.39Zm.13,5V37.25h-.25v4.86Z"/></svg>