<svg xmlns="http://www.w3.org/2000/svg" viewBox="0 0 61 48"><title>surfboard</title><path d="M59.6,43.86a.2.2,0,0,1,0,.08h0a.22.22,0,0,1-.05.08l0,0v0l-.06.07-.06.06-.08.06,0,0,0,0h0l0,0,0,0h-.15a.78.78,0,0,1-.22,0,.29.29,0,0,0-.14,0,2,2,0,0,0-.18.46v0a2.15,2.15,0,0,1-2.12,1.83,3,3,0,0,1-2.46-1.54h0c-.45-.61-.62-.78-1-.78s-.51.17-1,.78h0a2.76,2.76,0,0,1-4.94,0h0c-.45-.61-.62-.78-1-.78s-.51.17-1,.78a2.74,2.74,0,0,1-4.93,0h0c-.45-.61-.62-.77-1-.77s-.51.16-1,.77a2.75,2.75,0,0,1-4.94,0h0c-.45-.61-.62-.77-1-.77s-.51.16-1,.78a2.75,2.75,0,0,1-4.94,0h0c-.45-.62-.62-.78-1-.78s-.51.16-1,.78A3,3,0,0,1,22,46.79a1.4,1.4,0,0,1-1.08-.48c-.65-.76-.52-2.05-.25-4.08v0a14.43,14.43,0,0,0,.2-2.4c-1.76.34-4.25,3.9-5.55,6.48a.93.93,0,0,1-.84.52h0a.94.94,0,0,1-.83-.62c-.22-.61-2.06-6-.14-9a4.12,4.12,0,0,1,3.37-1.84c1.3-.09,1.89-.44,2-.72a.94.94,0,0,0-.31-.8,4.06,4.06,0,0,0-4-1c-2.47.67-5.24,4-6.18,7.45-.33,1.21-.68,3.45.66,4.83a1,1,0,0,1,0,1.34.93.93,0,0,1-1.33,0C6.09,45,5.7,42.62,6.45,39.85c1-3.58,4-7.84,7.5-8.78a5.86,5.86,0,0,1,5.95,1.54,2.66,2.66,0,0,1,.64,2.78c-.32.77-1.21,1.72-3.62,1.88a2.34,2.34,0,0,0-1.93,1c-.79,1.23-.6,3.4-.24,5.13,1.41-2.28,3.88-5.6,6.45-5.52a1.4,1.4,0,0,1,1.05.51,2.18,2.18,0,0,1,.44,1.22c1.73-1.16,4.25-2.3,9.24-2.81C26.53,14.7,36.69,2.26,37.15,1.71h0l.09-.09.06-.05.09-.05h0l0,0,.14-.05h.05a.65.65,0,0,1,.2,0H38a.92.92,0,0,1,.71.33c.46.55,10.57,12.92,5.27,34.91,13.88.82,15.57,6.41,15.64,6.66a0,0,0,0,0,0,0v.09s0,.07,0,.1h0v0h0s0,.06,0,.1v.1h0S59.61,43.84,59.6,43.86ZM38.81,39.55h2.43c5.35-17.68.32-29.59-2.43-34.32ZM36.93,5.48V39.55h-2.3C29.38,22.22,34.16,10.38,36.93,5.48ZM56.6,44.42v0h0a2.86,2.86,0,0,1,.77-1.35c-1-1.32-4.33-4-13.87-4.55-.21.75-.43,1.51-.67,2.29a1,1,0,0,1-.9.66h-8a1,1,0,0,1-.9-.66c-.22-.72-.43-1.43-.62-2.13-6.05.57-8.21,2.1-9.87,3.39a1,1,0,0,1,0,.17l0,.27a15.36,15.36,0,0,0-.21,2.33,2.52,2.52,0,0,0,.63-.7h0a3,3,0,0,1,2.47-1.54,3,3,0,0,1,2.47,1.54h0c.45.61.62.78,1,.78s.51-.17,1-.78h0a2.74,2.74,0,0,1,4.93,0h0c.45.61.62.78,1,.78s.51-.17,1-.78a2.74,2.74,0,0,1,4.93,0h0c.45.62.62.78,1,.78s.51-.16,1-.78h0a2.74,2.74,0,0,1,4.93,0h0c.45.62.62.78,1,.78s.51-.16,1-.78a2.75,2.75,0,0,1,4.94,0h0c.46.61.63.78,1,.78a.38.38,0,0,0,.15,0A2.72,2.72,0,0,0,56.6,44.42Z" style="fill:#fff;fill-rule:evenodd"/><path d="M59.56,43.94l-.44-.23.76.62Zm0-.08-.46-.19v0h0Zm0,.08.45.23-.77-.61Zm-.05.08-.28-.42-.09.06-.06.09Zm0,0,.41.29h0Zm0,0,.39.31h0v0Zm-.06.07.35.35h0Zm-.06.06L59,43.85h0Zm-.08.06.28.42h0Zm0,0L59,43.88h0Zm0,0,.23.44h0Zm0,0-.24-.44h0Zm0,0-.25-.44h0Zm0,0-.21-.45h0Zm0,0-.19-.47h0Zm0,0-.17-.47h0Zm0,0,.17.47h0Zm0,0,.2.45h0Zm0,0,.18.47h0Zm0,0-.11-.49h0Zm0,0v-.5h0Zm0,0L58.81,44h0Zm-.36,0L58.36,44l-.1,0-.07.09Zm-.18.46.48.15h0Zm0,0-.48-.15h0Zm-4.58.29-.41.3h0Zm0,0-.4.3h0Zm-1.92,0,.4.3h0Zm0,0-.41-.3h0Zm-4.94,0,.4-.3h0Zm0,0-.4.3h0Zm-1.93,0-.4-.29h0Zm-4.93,0,.4-.3h0Zm0,0-.4.3h0Zm-1.92,0-.4-.29h0Zm-4.94,0,.41-.3h0Zm0,0-.4.3h0Zm-1.92,0-.4-.3h0Zm-4.94,0,.4-.3h0Zm0,0-.4.29h0Zm-1.92,0L24,45h0Zm-3.55,1.06.38-.33h0Zm-.25-4.08.49.06h0Zm0,0-.49-.06h0Zm.2-2.4.5,0,0-.55-.55.11Zm-5.55,6.48-.44-.22h0Zm-.89.52.06-.5h0Zm-.83-.62L14,46h0Zm-.14-9L13,37h0Zm3.37-1.84,0,.5h0Zm2-.72.46.19h0Zm-.31-.8-.38.33h0Zm-4-1,.13.48h0ZM8.26,40.35l-.48-.13h0Zm.66,4.83.36-.35h0Zm0,1.34.35.36h0Zm-1.33,0,.36-.34h0ZM6.45,39.85l.48.13h0ZM14,31.07l.13.48h0Zm5.95,1.54-.38.33h0Zm.64,2.78.46.19h0Zm-3.62,1.88,0-.5h0Zm-1.93,1L14.58,38h0Zm-.24,5.13-.49.1.25,1.23.66-1.07Zm6.45-5.52v-.5h0Zm1.05.51-.39.32h0Zm.44,1.22-.5,0,.08.83L23,40Zm9.24-2.81.05.5.57-.06-.13-.56ZM37.15,1.71l-.36-.35h0l0,0Zm0,0,.31.39h0Zm0,0-.37-.34v0l0,0Zm.09-.09.32.38h0Zm.06-.05L37,1.14h0Zm.09-.05.24.44h0Zm0,0,.24.43h0Zm0,0L37.29,1h0Zm.14-.05L37.55.92h0Zm0,0,.16.48h0Zm0,0L37.49.93h0Zm0,0L37.56.91h0Zm.2,0V.88h0Zm.14,0,0,.5h0Zm.71.33L38.34,2h0ZM44,36.62l-.49-.11-.14.58.6,0Zm15.64,6.66.49-.12h0Zm0,0,.49-.08v0Zm0,.09.49-.07h0Zm0,.11-.5,0h0Zm0,0-.5.06h0Zm0,0,.5,0h0Zm0,0-.5,0h0Zm0,0-.5-.06h0Zm0,0-.5-.06h0v0Zm0,0-.5,0h0Zm0,.1-.48-.11h0Zm0,0,.49.1h0Zm0,0-.49-.11h0Zm0,0,.48.14h0Zm0,0-.48-.14h0Zm0,0-.48-.14h0ZM41.24,39.55v.5h.37l.11-.36Zm-2.43,0h-.5v.5h.5Zm0-34.32L39.24,5l-.93-1.61V5.23ZM36.93,39.55v.5h.5v-.5Zm0-34.07h.5V3.58l-.94,1.65Zm-2.3,34.07-.47.14.1.36h.37Zm22,4.85.48.15.23-.74-.77.1Zm0,0,.48.15h0Zm0,0-.47-.14-.24.74.78-.1Zm.77-1.35.33.38.35-.31-.29-.37ZM43.5,38.5l0-.5-.4,0-.11.39Zm-.67,2.29.47.15h0Zm-9.79,0-.47.15h0Zm-.62-2.13.48-.14-.11-.4-.42,0Zm-9.87,3.39-.3-.39-.17.12,0,.21Zm0,.17.5.06h0Zm0,.27-.5-.07h0Zm-.21,2.33-.5,0,0,.83.72-.42Zm.63-.7-.4-.3h0Zm0,0-.4-.3h0Zm4.94,0-.4.3h0Zm0,0,.4-.29h0Zm1.92,0,.41.3h0Zm0,0-.4-.3h0Zm4.93,0-.4.3h0Zm0,0,.4-.3h0Zm1.92,0,.4.3h0Zm4.93,0,.41-.3h0Zm0,0,.4-.29h0Zm1.92,0-.4-.29h0Zm0,0-.4-.3h0Zm4.93,0-.4.3h0Zm0,0,.4-.29h0Zm1.92,0,.4.3h0Zm4.94,0-.4.3h0Zm0,0,.4-.3h0Zm1.11.76.2.46.1,0,.08-.09Zm3.57-.7a.56.56,0,0,0,.07-.16l-1-.32h0Zm-.76-.62h0l.64.77h0Zm.55.87a.66.66,0,0,0,.22-.26l-.9-.45s0-.06.12-.12Zm.09-.07,0-.08-.85-.53h0Zm0,0h0l-.81-.59,0,0Zm-.1.12.08-.09-.78-.62,0,0Zm-.1.1.08-.08-.71-.7,0,0Zm-.11.1a.71.71,0,0,0,.13-.12l-.71-.7h0Zm-.06,0,0,0L59,43.87h0Zm0,0,0,0L59,43.88l0,0Zm0,0h0L59,43.88l0,0Zm0,0h0l-.48-.88h0Zm-.08,0,.08,0-.49-.87h0Zm-.06,0,.07,0-.45-.89h0Zm0,0,0,0-.37-.93h0Zm0,0h0l-.35-.94h0Zm0,0h0l-.35-.94,0,0Zm0,0,0,0L58.8,44h0Zm-.09,0,.09,0L58.8,44l.05,0Zm-.12,0h.13l-.24-1,.11,0Zm0,0h0v-1h0Zm.11,0H59v-1l-.13,0Zm-.35,0a1.78,1.78,0,0,0,.35,0l-.25-1h-.1Zm-.14-.48.2.46h-.06V44l-.2,0-.08,0h-.07Zm.3.61a2.41,2.41,0,0,0,.08-.25l0-.09h0v0a.11.11,0,0,0,0,.05l-.76-.65a.57.57,0,0,0-.12.2s0,.1-.06.15-.07.21-.09.29Zm0,0v0l-.95-.29h0Zm-2.6,2.18a2.38,2.38,0,0,0,2-.88,3.82,3.82,0,0,0,.64-1.3l-1-.3a2.82,2.82,0,0,1-.45,1,1.44,1.44,0,0,1-1.19.51Zm-2.86-1.74a3.45,3.45,0,0,0,2.86,1.74v-1A2.5,2.5,0,0,1,54.21,45Zm0,0h0l.81-.6h0ZM52.84,45h.06L53,45a2.77,2.77,0,0,1,.44.53l.81-.59a3.82,3.82,0,0,0-.61-.71,1.1,1.1,0,0,0-.76-.28Zm-.56.58a3.23,3.23,0,0,1,.44-.53l.06,0h.06V44a1.12,1.12,0,0,0-.76.28,4.55,4.55,0,0,0-.6.7Zm0,0h0l-.8-.6h0Zm-2.87,1.74a3.48,3.48,0,0,0,2.87-1.74L51.47,45a2.48,2.48,0,0,1-2.06,1.33Zm-2.87-1.74a3.47,3.47,0,0,0,2.87,1.74v-1A2.51,2.51,0,0,1,47.34,45Zm0,0h0l.8-.59h0ZM46,45H46l.06,0a3.89,3.89,0,0,1,.44.53l.8-.59a4.24,4.24,0,0,0-.6-.71A1.12,1.12,0,0,0,46,44Zm-.56.58a3.17,3.17,0,0,1,.44-.53l.06,0H46V44a1.09,1.09,0,0,0-.76.28,3.82,3.82,0,0,0-.61.71Zm-2.87,1.75a3.49,3.49,0,0,0,2.87-1.75L44.61,45a2.49,2.49,0,0,1-2.06,1.34Zm-2.87-1.74a3.45,3.45,0,0,0,2.87,1.74v-1A2.51,2.51,0,0,1,40.48,45Zm0,0h0l.8-.6h0ZM39.11,45h.06s0,0,.06,0a3.17,3.17,0,0,1,.44.53l.81-.59a3.82,3.82,0,0,0-.61-.71,1.14,1.14,0,0,0-.76-.27Zm-.56.57A4.73,4.73,0,0,1,39,45l.06,0h.06V44a1.16,1.16,0,0,0-.76.27,4.24,4.24,0,0,0-.6.71Zm-2.87,1.75a3.46,3.46,0,0,0,2.87-1.75l-.8-.59a2.51,2.51,0,0,1-2.07,1.34Zm-2.87-1.74a3.48,3.48,0,0,0,2.87,1.74v-1A2.5,2.5,0,0,1,33.62,45Zm0,0h0l.81-.6h0ZM32.25,45h.06l.06,0a3.17,3.17,0,0,1,.44.53l.8-.59a4.24,4.24,0,0,0-.6-.71,1.16,1.16,0,0,0-.76-.27Zm-.56.57a3.79,3.79,0,0,1,.44-.53l.06,0h.06V44a1.16,1.16,0,0,0-.76.27,4.69,4.69,0,0,0-.6.71Zm-2.87,1.75a3.47,3.47,0,0,0,2.87-1.75l-.8-.59a2.52,2.52,0,0,1-2.07,1.34ZM26,45.55a3.47,3.47,0,0,0,2.87,1.74v-1A2.52,2.52,0,0,1,26.75,45Zm0,0h0l.8-.6h0ZM25.39,45h.06l.06,0a6,6,0,0,1,.44.53l.8-.59a4.69,4.69,0,0,0-.6-.71,1.16,1.16,0,0,0-.76-.27Zm-.56.58a3.44,3.44,0,0,1,.44-.54l.06,0h.06V44a1.14,1.14,0,0,0-.76.27A4.18,4.18,0,0,0,24,45ZM22,47.29a3.47,3.47,0,0,0,2.87-1.74L24,45A2.49,2.49,0,0,1,22,46.29Zm-1.46-.66a1.89,1.89,0,0,0,1.46.66v-1a.9.9,0,0,1-.7-.31Zm-.37-4.47a18,18,0,0,0-.22,2.6,2.78,2.78,0,0,0,.59,1.87l.76-.65a1.83,1.83,0,0,1-.35-1.24,17.23,17.23,0,0,1,.21-2.45Zm0,0v0l1,.13v0Zm.19-2.3a6.84,6.84,0,0,1,0,1c-.05.43-.11.89-.15,1.26l1,.13c.05-.37.11-.84.15-1.29a9.07,9.07,0,0,0,0-1.23Zm-4.6,6.66a23.59,23.59,0,0,1,2.54-4A12.19,12.19,0,0,1,19.72,41a3,3,0,0,1,1.2-.68l-.19-1a3.86,3.86,0,0,0-1.65.9,12.32,12.32,0,0,0-1.59,1.68,24.43,24.43,0,0,0-2.65,4.17Zm-1.29.8a1.42,1.42,0,0,0,1.29-.8l-.89-.44a.45.45,0,0,1-.4.24Zm-.11,0h.11v-1h0Zm-1.24-.95a1.43,1.43,0,0,0,1.27.95l.06-1A.43.43,0,0,1,14,46ZM13,37a8.56,8.56,0,0,0-.81,5.7,20.47,20.47,0,0,0,.9,3.69L14,46a18.93,18.93,0,0,1-.85-3.49,7.65,7.65,0,0,1,.66-5Zm3.76-2.07A4.63,4.63,0,0,0,13,37l.84.54a3.62,3.62,0,0,1,3-1.61Zm1.57-.41s0,0-.28.16a4.13,4.13,0,0,1-1.29.25l.07,1a5.3,5.3,0,0,0,1.6-.33,1.46,1.46,0,0,0,.83-.7Zm-.22-.28a1.25,1.25,0,0,1,.19.29.15.15,0,0,1,0,.06s0,0,0-.07l.93.38a1,1,0,0,0,0-.72,2.16,2.16,0,0,0-.38-.6Zm-3.54-.81a3.56,3.56,0,0,1,3.54.81l.75-.66a4.52,4.52,0,0,0-4.55-1.11Zm-5.83,7.1a12.59,12.59,0,0,1,2.42-4.57,7.38,7.38,0,0,1,3.41-2.53l-.26-1a8.3,8.3,0,0,0-3.92,2.85,13.62,13.62,0,0,0-2.61,4.95Zm.54,4.35a3.14,3.14,0,0,1-.81-2.15,7.57,7.57,0,0,1,.27-2.2l-1-.26a8.52,8.52,0,0,0-.31,2.5,4.2,4.2,0,0,0,1.09,2.81Zm0,2.05a1.46,1.46,0,0,0,0-2.05l-.72.7a.47.47,0,0,1,0,.64Zm-2,0a1.43,1.43,0,0,0,2,0l-.7-.71a.44.44,0,0,1-.62,0ZM6,39.72c-.77,2.87-.39,5.44,1.25,7.13l.72-.69c-1.31-1.36-1.72-3.52-1-6.18Zm7.85-9.14a10.15,10.15,0,0,0-4.93,3.58A15.7,15.7,0,0,0,6,39.72l1,.26a14.68,14.68,0,0,1,2.72-5.19,9.2,9.2,0,0,1,4.43-3.24Zm6.47,1.7a6.41,6.41,0,0,0-6.47-1.7l.27,1a5.37,5.37,0,0,1,5.44,1.39Zm.72,3.3a3.15,3.15,0,0,0-.72-3.3l-.76.66a2.14,2.14,0,0,1,.55,2.26ZM17,37.77A5.93,5.93,0,0,0,19.78,37,3,3,0,0,0,21,35.58l-.93-.38a2,2,0,0,1-.82.94,5,5,0,0,1-2.37.63Zm-1.54.76A1.81,1.81,0,0,1,17,37.77l-.07-1A2.78,2.78,0,0,0,14.58,38Zm-.18,4.76a13.11,13.11,0,0,1-.29-2.65,4.07,4.07,0,0,1,.47-2.11L14.57,38a5,5,0,0,0-.63,2.64,13.33,13.33,0,0,0,.32,2.86Zm6-5.92a5.79,5.79,0,0,0-4,2,20.1,20.1,0,0,0-2.87,3.74l.85.52a19.87,19.87,0,0,1,2.72-3.55,4.78,4.78,0,0,1,3.29-1.73Zm1.42.69a1.89,1.89,0,0,0-1.42-.69l0,1a.89.89,0,0,1,.68.33Zm.56,1.49a2.72,2.72,0,0,0-.56-1.5l-.77.65a1.58,1.58,0,0,1,.33.95Zm8.69-3.26c-5.05.52-7.66,1.68-9.47,2.89L23,40c1.66-1.1,4.1-2.22,9-2.72Zm4.88-34.9C36.24,2,26,14.6,31.44,36.91l1-.24C27.06,14.79,37.13,2.51,37.53,2Zm.09-.08-.06.05.71.7,0,0h0Zm-.08.08.06-.07h0l.62.78a.07.07,0,0,0,0,0A.29.29,0,0,0,37.57,2Zm.16-.17-.13.13.74.67,0,0ZM37,1.14l-.14.11.71.71h0Zm.12-.08L37,1.14,37.6,2l0,0Zm0,0,0,0,.49.87,0,0Zm.1-.05-.12.07.53.84h0ZM37.5.93a.58.58,0,0,0-.21.07l.39.92.06,0Zm0,0h.06l.14,1,.12,0Zm0,0h0l.33.94h0Zm0,0h0l.32.95h0Zm.34,0a1.55,1.55,0,0,0-.31,0l.22,1h.09Zm.15,0h-.14l0,1H38Zm1.09.51A1.47,1.47,0,0,0,38,.88v1a.42.42,0,0,1,.33.16Zm5.36,35.35C49.83,14.54,39.63,2,39.11,1.39L38.34,2c.4.47,10.42,12.69,5.16,34.47Zm15.64,6.41a6.76,6.76,0,0,0-2.83-3.39C55,38.16,51,36.54,44,36.12l-.06,1c6.87.41,10.67,2,12.74,3.45a6,6,0,0,1,2.45,2.84Zm0,0a.08.08,0,0,1,0,0h0v0a.43.43,0,0,1,0-.05l-1,.24a.11.11,0,0,1,0,0h0a.18.18,0,0,0,0,.06Zm0,.14v-.1l-1,.15v.1Zm0,.17a.65.65,0,0,0,0-.17l-1,.14v0h1Zm0,0v0h-1v0Zm0,0h0l-1,.11h0Zm0,0v0l-1,.13h0Zm0,.05v-.05l-1,.09v0Zm0,0v0h-1v0Zm0,.06a.35.35,0,0,0,0-.06l-1-.07h0Zm0,0h0l-1-.12h0Zm0,0h0l-1-.07h0Zm0,.17a.62.62,0,0,0,0-.17l-1-.07v0h0s0,0,0,0Zm0,0v0l-1-.17h0Zm0,0v0l-1-.2h0Zm0,.06v-.06l-1-.21v0Zm0,0v0l-1-.28v0Zm0,0v0l-1-.27h0Zm0,.11,0-.12-1-.27v0h0Zm-18.82-5H38.81v1h2.43ZM38.38,5.48c2.69,4.64,7.69,16.41,2.38,33.92l1,.29C47.12,21.86,42,9.8,39.24,5Zm.93,34.07V5.23h-1V39.55Zm-1.88,0V5.48h-1V39.55Zm-2.8.5h2.3v-1h-2.3ZM36.49,5.23c-2.82,5-7.63,17-2.33,34.46l1-.29c-5.2-17.17-.47-28.87,2.25-33.68Zm19.64,39h0l1,.3v0Zm.54.64h0l-.13-1h0ZM57,42.68a3.25,3.25,0,0,0-.9,1.58l.95.29a2.37,2.37,0,0,1,.62-1.12ZM43.48,39c9.45.49,12.57,3.19,13.49,4.36l.79-.61C56.6,41.26,53.15,38.5,43.53,38Zm-.18,1.94c.25-.78.48-1.55.68-2.31l-1-.26c-.21.74-.43,1.5-.67,2.27Zm-1.37,1a1.44,1.44,0,0,0,1.37-1l-.95-.3a.44.44,0,0,1-.42.31Zm-8,0h8V41h-8Zm-1.37-1a1.44,1.44,0,0,0,1.37,1V41a.44.44,0,0,1-.42-.31Zm-.64-2.15c.2.7.41,1.42.64,2.15l1-.3c-.22-.72-.43-1.42-.62-2.12Zm-9.07,3.66A12.35,12.35,0,0,1,26,40.55a22.75,22.75,0,0,1,6.43-1.4l-.09-1a23.45,23.45,0,0,0-6.72,1.46,13.24,13.24,0,0,0-3.4,2Zm.17-.17a.88.88,0,0,1,0-.16l-1-.13a.88.88,0,0,0,0,.17Zm0,.28c0-.1,0-.19,0-.28l-1-.12a2,2,0,0,0,0,.26Zm-.2,2.23a18.47,18.47,0,0,1,.2-2.24l-1-.13a17.08,17.08,0,0,0-.21,2.42Zm-.27-1a2.83,2.83,0,0,1-.48.56l.51.86a3.13,3.13,0,0,0,.77-.83Zm0,0h0l.8.6h0Zm2.87-1.74a3.48,3.48,0,0,0-2.87,1.74l.8.6a2.52,2.52,0,0,1,2.07-1.34Zm2.87,1.74a3.48,3.48,0,0,0-2.87-1.74v1a2.5,2.5,0,0,1,2.07,1.34Zm0,0h0l-.8.6h0Zm.56.58h-.06a.12.12,0,0,1-.06,0,4.58,4.58,0,0,1-.44-.53l-.8.59a4.69,4.69,0,0,0,.6.71,1.16,1.16,0,0,0,.76.27Zm.56-.58a3.44,3.44,0,0,1-.44.54l-.06,0h-.06v1a1.1,1.1,0,0,0,.76-.28,3.72,3.72,0,0,0,.61-.7Zm0,0h0l.81.6h0Zm2.87-1.74a3.45,3.45,0,0,0-2.87,1.74l.8.6a2.51,2.51,0,0,1,2.07-1.34Zm2.86,1.74a3.45,3.45,0,0,0-2.86-1.74v1a2.48,2.48,0,0,1,2.06,1.34Zm0,0h0l-.8.6h0Zm.56.58h-.06s0,0-.06,0a3.44,3.44,0,0,1-.44-.54l-.81.6a4.68,4.68,0,0,0,.61.71,1.14,1.14,0,0,0,.76.27Zm.56-.58a3.91,3.91,0,0,1-.45.54s0,0,0,0h-.06v1a1.12,1.12,0,0,0,.76-.28,4.12,4.12,0,0,0,.6-.7Zm2.87-1.74a3.46,3.46,0,0,0-2.87,1.75l.8.59a2.51,2.51,0,0,1,2.07-1.34ZM42,43.82a3.48,3.48,0,0,0-2.87-1.74v1a2.48,2.48,0,0,1,2.06,1.34Zm0,0h0l-.81.6h0Zm.56.58h-.06l-.06,0a3.79,3.79,0,0,1-.44-.53l-.8.59a4.69,4.69,0,0,0,.6.71,1.16,1.16,0,0,0,.76.27Zm.56-.57a3.17,3.17,0,0,1-.44.53l-.06,0h-.06v1a1.14,1.14,0,0,0,.76-.27,4.18,4.18,0,0,0,.61-.71Zm0,0h0l.81.59h0ZM46,42.08a3.45,3.45,0,0,0-2.87,1.74l.8.6A2.51,2.51,0,0,1,46,43.08Zm2.86,1.74A3.45,3.45,0,0,0,46,42.08v1a2.5,2.5,0,0,1,2.06,1.34Zm0,0h0l-.8.6h0Zm.56.57h-.07l-.05,0a3.17,3.17,0,0,1-.44-.53l-.81.59a4.18,4.18,0,0,0,.61.71,1.13,1.13,0,0,0,.76.27Zm.56-.57a3.79,3.79,0,0,1-.44.53l-.06,0h-.06v1a1.16,1.16,0,0,0,.76-.27,4.69,4.69,0,0,0,.6-.71Zm2.87-1.75A3.47,3.47,0,0,0,50,43.83l.8.59a2.52,2.52,0,0,1,2.07-1.34Zm2.87,1.74a3.47,3.47,0,0,0-2.87-1.74v1a2.52,2.52,0,0,1,2.07,1.34Zm0,0h0l-.8.6h0Zm.56.58h-.06s0,0,0,0a3.91,3.91,0,0,1-.45-.54l-.8.6a4.18,4.18,0,0,0,.61.71,1.12,1.12,0,0,0,.75.27Zm.15.48-.2-.45h.05v1l.21,0h.07l0,0h0Zm-.31-.61a2.58,2.58,0,0,1-.08.26.23.23,0,0,0,0,.09s0,0,0,0v0s0,0,0,0l.76.65a2,2,0,0,0,.12-.2.88.88,0,0,0,0-.15c0-.1.07-.21.1-.29Z" style="fill:#222532"/><path d="M7.29,31.14a3.84,3.84,0,0,0-2.61-1.41,2.62,2.62,0,0,0-2.3,1.54L1.57,32.7h7Z" style="fill:#fff;stroke:#222532"/><path d="M5.46,34.57l1,.11-.12,1c-.36,2.63-3.1,5.4-3.22,5.52L1.82,42.44,1.5,40.66c-.37-2.09-.11-3.7.79-4.78A3.89,3.89,0,0,1,5.46,34.57ZM3.74,37.1a1.9,1.9,0,0,0-.38.75h0a8.73,8.73,0,0,0,.55-.93A1,1,0,0,0,3.74,37.1Z" style="fill:#fff;fill-rule:evenodd"/><path d="M6.43,34.68l.5.06L7,34.23l-.51,0Zm-1-.11,0,.5h0Zm.85,1.08.49.07h0ZM3.09,41.17l.35.36h0ZM1.82,42.44l-.5.09.17.95.68-.68ZM1.5,40.66,2,40.58H2Zm.79-4.78.38.32h0Zm1.07,2-.48-.14-.06.19.09.17Zm.38-.75.38.32h0Zm-.38.75-.45.22.38.78.48-.72Zm.55-.93.45.23-.78-.61Zm2.57-2.74-1-.1-.11,1,1,.1Zm.32,1.53.13-1-1-.13-.12,1ZM3.44,41.52A15.21,15.21,0,0,0,5,39.64,9.33,9.33,0,0,0,6.8,35.72l-1-.14A8.31,8.31,0,0,1,4.2,39.06a14.83,14.83,0,0,1-1.47,1.76ZM2.17,42.8l1.27-1.27-.7-.71L1.46,42.09ZM1,40.75l.31,1.78,1-.17L2,40.58Zm.89-5.19c-1,1.24-1.28,3-.89,5.19l1-.17c-.36-2-.08-3.46.68-4.38Zm3.56-1,.06-.49H5.13a4.89,4.89,0,0,0-.89.1A4.21,4.21,0,0,0,1.9,35.56l.77.64a3.17,3.17,0,0,1,1.78-1.05,3.48,3.48,0,0,1,.71-.08h.25ZM3.84,38a1.51,1.51,0,0,1,.28-.57l-.77-.64a2.55,2.55,0,0,0-.47.93Zm0-.36h0l-.9.44h0Zm-.34-.94c-.15.29-.34.59-.53.89l.83.55a10.6,10.6,0,0,0,.59-1Zm.65.73.13-.13-.67-.75-.23.24Z" style="fill:#222532"/><path d="M12.71,29.29a1.79,1.79,0,1,1-1.79-1.8A1.8,1.8,0,0,1,12.71,29.29Zm-1.69,0a.1.1,0,0,0-.1-.1.1.1,0,0,0-.09.1C10.83,29.4,11,29.4,11,29.29Z" style="fill:#fff;fill-rule:evenodd"/><path d="M10.92,31.59a2.3,2.3,0,0,0,2.29-2.3h-1a1.3,1.3,0,0,1-1.29,1.3Zm-2.28-2.3a2.29,2.29,0,0,0,2.28,2.3v-1a1.29,1.29,0,0,1-1.28-1.3ZM10.92,27a2.3,2.3,0,0,0-2.28,2.3h1A1.29,1.29,0,0,1,10.92,28Zm2.29,2.3A2.3,2.3,0,0,0,10.92,27v1a1.3,1.3,0,0,1,1.29,1.3Zm-2.29.4a.4.4,0,0,1-.4-.4h1a.6.6,0,0,0-.6-.6Zm.41-.4a.41.41,0,0,1-.41.4v-1a.59.59,0,0,0-.59.6Zm-.81,0a.44.44,0,0,1,.17-.34.42.42,0,0,1,.23-.08.4.4,0,0,1,.23.08.45.45,0,0,1,.18.34h-1a.55.55,0,0,0,.23.46.6.6,0,0,0,.36.12.62.62,0,0,0,.37-.12.58.58,0,0,0,.23-.46Z" style="fill:#222532"/></svg>